# xmcd
#
# Track frame offsets: 
#        150
#        17939
#        37291
#        55400
#        76311
#        91256
#        106069
#        127347
#        155061
#        175479
#
# Disc length: 2647 seconds
#
# Revision: 0
# Processed by: cddbd v1.5.2PL0 Copyright (c) Steve Scherf et al.
# Submitted via: ExactAudioCopy v1.0b3
#
DISCID=8a0a550a
DTITLE=Ngoc Son - Mo Tinh
DYEAR=2004
DGENRE=
TTITLE0=Khuc tinh nong
TTITLE1=Mo tinh
TTITLE2=Em co biet
TTITLE3=Loi noi doi cuoi cung
TTITLE4=Dam me
TTITLE5=Vinh biet tinh em
TTITLE6=Cha toi
TTITLE7=Dem cuoi
TTITLE8=Thien duong tinh yeu
TTITLE9=Ke trang tay
EXTD=
EXTT0=
EXTT1=
EXTT2=
EXTT3=
EXTT4=
EXTT5=
EXTT6=
EXTT7=
EXTT8=
EXTT9=
PLAYORDER=
